<svg xmlns="http://www.w3.org/2000/svg" xmlns:xlink="http://www.w3.org/1999/xlink" version="1.1" width="50" height="50" viewBox="0 0 50 50" xml:space="preserve">
<desc>Created with Fabric.js 3.5.0</desc>
<defs>
</defs>
<rect x="0" y="0" width="100%" height="100%" fill="rgba(255,255,255,0)"/>
<g transform="matrix(0.3865 0 0 0.3852 24.9561 25.0008)" id="73913">
<path style="stroke: none; stroke-width: 0; stroke-dasharray: none; stroke-linecap: butt; stroke-dashoffset: 0; stroke-linejoin: miter; stroke-miterlimit: 4; is-custom-font: none; font-file-url: none; fill: rgb(255,255,255); fill-rule: nonzero; opacity: 1;" vector-effect="non-scaling-stroke" transform=" translate(-64, -48)" d="M 0 11.283 V 8 a 8 8 0 0 1 8 -8 h 112 a 8 8 0 0 1 8 8 v 3.283 l -64 40 z m 66.12 48.11 a 4.004 4.004 0 0 1 -4.24 0 L 0 20.717 V 88 a 8 8 0 0 0 8 8 h 112 a 8 8 0 0 0 8 -8 V 20.717 z" stroke-linecap="round"/>
</g>
</svg>