<svg xmlns="http://www.w3.org/2000/svg" xmlns:xlink="http://www.w3.org/1999/xlink" version="1.1" width="50" height="50" viewBox="0 0 50 50" xml:space="preserve">
<desc>Created with Fabric.js 3.5.0</desc>
<defs>
</defs>
<rect x="0" y="0" width="100%" height="100%" fill="rgba(0,0,0,0)"/>
<g transform="matrix(3.0892 0 0 2.4762 24.8693 25.025)" id="814520">
<path style="stroke: none; stroke-width: 1; stroke-dasharray: none; stroke-linecap: butt; stroke-dashoffset: 0; stroke-linejoin: miter; stroke-miterlimit: 4; is-custom-font: none; font-file-url: none; fill: rgb(255,255,255); fill-rule: nonzero; opacity: 1;" vector-effect="non-scaling-stroke" transform=" translate(-12, -12)" d="M 17 9 V 7 c 0 -2.8 -2.2 -5 -5 -5 S 7 4.2 7 7 v 2 c -1.7 0 -3 1.3 -3 3 v 7 c 0 1.7 1.3 3 3 3 h 10 c 1.7 0 3 -1.3 3 -3 v -7 C 20 10.3 18.7 9 17 9 z M 9 7 c 0 -1.7 1.3 -3 3 -3 s 3 1.3 3 3 v 2 H 9 V 7 z M 13.1 15.5 c 0 0 -0.1 0.1 -0.1 0.1 V 17 c 0 0.6 -0.4 1 -1 1 s -1 -0.4 -1 -1 v -1.4 c -0.6 -0.6 -0.7 -1.5 -0.1 -2.1 c 0.6 -0.6 1.5 -0.7 2.1 -0.1 C 13.6 13.9 13.7 14.9 13.1 15.5 z" stroke-linecap="round"/>
</g>
</svg>