<svg xmlns="http://www.w3.org/2000/svg" xmlns:xlink="http://www.w3.org/1999/xlink" version="1.1" width="50" height="50" viewBox="0 0 50 50" xml:space="preserve">
<desc>Created with Fabric.js 3.5.0</desc>
<defs>
</defs>
<rect x="0" y="0" width="100%" height="100%" fill="rgba(255,255,255,0)"/>
<g transform="matrix(1.3536 0 0 1.3536 24.8954 25.106)" id="210357">
<g style="" vector-effect="non-scaling-stroke">
		<g transform="matrix(1 0 0 1 0 0)" id="account">
<path style="stroke: none; stroke-width: 1; stroke-dasharray: none; stroke-linecap: butt; stroke-dashoffset: 0; stroke-linejoin: miter; stroke-miterlimit: 4; is-custom-font: none; font-file-url: none; fill: rgb(255,255,255); fill-rule: nonzero; opacity: 1;" transform=" translate(-24, -24)" d="M 6 10 v 28 c 0 2.21 1.79 4 4 4 h 28 c 2.21 0 4 -1.79 4 -4 V 10 c 0 -2.21 -1.79 -4 -4 -4 H 10 c -2.21 0 -4 1.79 -4 4 z m 24 8 c 0 3.32 -2.69 6 -6 6 s -6 -2.68 -6 -6 c 0 -3.31 2.69 -6 6 -6 s 6 2.69 6 6 z M 12 34 c 0 -4 8 -6.2 12 -6.2 S 36 30 36 34 v 2 H 12 v -2 z" stroke-linecap="round"/>
</g>
		<g transform="matrix(1 0 0 1 0 0)" id="account">
<path style="stroke: none; stroke-width: 1; stroke-dasharray: none; stroke-linecap: butt; stroke-dashoffset: 0; stroke-linejoin: miter; stroke-miterlimit: 4; is-custom-font: none; font-file-url: none; fill: none; fill-rule: nonzero; opacity: 1;" transform=" translate(-24, -24)" d="M 0 0 h 48 v 48 H 0 z" stroke-linecap="round"/>
</g>
</g>
</g>
</svg>