<svg width="170" height="136" viewBox="0 0 170 136" fill="none" xmlns="http://www.w3.org/2000/svg">
<path d="M153 68C153 72.5087 154.791 76.8327 157.979 80.0208C161.167 83.2089 165.491 85 170 85V119C170 123.509 168.209 127.833 165.021 131.021C161.833 134.209 157.509 136 153 136H17C12.4913 136 8.1673 134.209 4.97918 131.021C1.79107 127.833 0 123.509 0 119V85C4.50868 85 8.8327 83.2089 12.0208 80.0208C15.2089 76.8327 17 72.5087 17 68C17 63.4913 15.2089 59.1673 12.0208 55.9792C8.8327 52.7911 4.50868 51 0 51V17C0 12.4913 1.79107 8.1673 4.97918 4.97918C8.1673 1.79107 12.4913 0 17 0H153C157.509 0 161.833 1.79107 165.021 4.97918C168.209 8.1673 170 12.4913 170 17V51C165.491 51 161.167 52.7911 157.979 55.9792C154.791 59.1673 153 63.4913 153 68ZM123.25 104.125C123.25 91.375 97.75 85 85 85C72.25 85 46.75 91.375 46.75 104.125V110.5H123.25V104.125ZM85 70.125C90.0723 70.125 94.9368 68.11 98.5234 64.5234C102.11 60.9368 104.125 56.0723 104.125 51C104.125 45.9277 102.11 41.0632 98.5234 37.4766C94.9368 33.89 90.0723 31.875 85 31.875C79.9277 31.875 75.0632 33.89 71.4766 37.4766C67.89 41.0632 65.875 45.9277 65.875 51C65.875 56.0723 67.89 60.9368 71.4766 64.5234C75.0632 68.11 79.9277 70.125 85 70.125Z" fill="#DEDEDE"/>
</svg>
